<svg xmlns="http://www.w3.org/2000/svg" xmlns:xlink="http://www.w3.org/1999/xlink" width="230" height="74" viewBox="0 0 230 74"><defs><clipPath id="a"><path d="M357-115.635a33.753,33.753,0,0,0-33.743,33.744A33.741,33.741,0,0,0,357-48.17a33.729,33.729,0,0,0,33.721-33.721A33.741,33.741,0,0,0,357-115.635Z" fill="#1d2087"/></clipPath></defs><g transform="translate(-315.88 119.027)"><path d="M357-47.072a35.02,35.02,0,0,0,34.944-34.944A35.025,35.025,0,0,0,357-116.983a35.03,35.03,0,0,0-34.967,34.967A35.025,35.025,0,0,0,357-47.072Z" fill="#fff"/><path d="M357-47.027a35.07,35.07,0,0,0,35-34.989,35.074,35.074,0,0,0-35-35.011,35.077,35.077,0,0,0-35.011,35.011A35.072,35.072,0,0,0,357-47.027Z" fill="#fff"/><path d="M357-115.635a33.753,33.753,0,0,0-33.743,33.744A33.741,33.741,0,0,0,357-48.17a33.729,33.729,0,0,0,33.721-33.721A33.741,33.741,0,0,0,357-115.635Z" fill="#1d2087"/><g clip-path="url(#a)"><path d="M357-114.166a32.257,32.257,0,0,0-32.242,32.275A32.262,32.262,0,0,0,357-49.627a32.259,32.259,0,0,0,32.23-32.264A32.254,32.254,0,0,0,357-114.166Z" fill="#fff"/><path d="M357-49.189a32.728,32.728,0,0,1-32.68-32.7,32.514,32.514,0,0,1,9.572-23.133A32.45,32.45,0,0,1,357-114.6a32.728,32.728,0,0,1,32.668,32.713A32.722,32.722,0,0,1,357-49.189Zm0-64.54a31.857,31.857,0,0,0-31.8,31.838A31.851,31.851,0,0,0,357-50.065,31.846,31.846,0,0,0,388.8-81.891,31.852,31.852,0,0,0,357-113.729Z" fill="#1d2087"/><path d="M357-114.255a32.351,32.351,0,0,0-32.331,32.364A32.347,32.347,0,0,0,357-49.549a32.335,32.335,0,0,0,32.308-32.342A32.339,32.339,0,0,0,357-114.255Z" fill="#fff"/><path d="M357-49.533a32.121,32.121,0,0,1-12.589-2.544,32.261,32.261,0,0,1-10.282-6.938A32.272,32.272,0,0,1,327.2-69.3a32.147,32.147,0,0,1-2.543-12.59A32.2,32.2,0,0,1,327.2-94.5a32.3,32.3,0,0,1,6.934-10.292,32.239,32.239,0,0,1,10.282-6.94A32.1,32.1,0,0,1,357-114.272a32.057,32.057,0,0,1,12.58,2.545,32.214,32.214,0,0,1,10.276,6.94A32.279,32.279,0,0,1,386.788-94.5a32.22,32.22,0,0,1,2.541,12.6,32.163,32.163,0,0,1-2.541,12.59,32.254,32.254,0,0,1-6.928,10.286,32.246,32.246,0,0,1-10.276,6.938A32.078,32.078,0,0,1,357-49.533Zm0-64.706A32.367,32.367,0,0,0,324.69-81.891,32.356,32.356,0,0,0,357-49.566,32.345,32.345,0,0,0,389.3-81.891,32.356,32.356,0,0,0,357-114.239Z" fill="#fff"/><path d="M330.679-86.907l-4.894-.768a31.52,31.52,0,0,0-.5,7.052l3.959-.167a25.88,25.88,0,0,1,.022-2.614l-.99-.067c.012-.322.034-.656.067-.978l1.969.167a27.392,27.392,0,0,0-.078,3.458l.022.034-.022.022c.011.278.022.556.044.845l-4.927.523a31.111,31.111,0,0,0,1.346,6.94l3.782-1.179c-.267-.845-.479-1.69-.668-2.536l-.967.2c-.067-.322-.134-.645-.189-.967l1.957-.356a25.84,25.84,0,0,0,.812,3.359l.022.033-.011.022q.133.417.267.8l-4.627,1.791a31.894,31.894,0,0,0,3.092,6.35l3.348-2.113c-.467-.745-.9-1.512-1.29-2.28l-.89.445c-.145-.3-.289-.589-.434-.89l1.8-.845a26.908,26.908,0,0,0,1.657,3.036l.022.022v.034l.467.7-4.015,2.914a31.736,31.736,0,0,0,4.638,5.339l2.692-2.914c-.657-.6-1.268-1.223-1.847-1.869l-.745.657c-.211-.245-.433-.49-.645-.746l1.513-1.267a28.146,28.146,0,0,0,2.391,2.491l.033.011.011.033c.2.189.412.379.623.556l-3.114,3.86a31.725,31.725,0,0,0,5.861,3.959l1.835-3.5c-.778-.412-1.534-.857-2.257-1.335l-.545.834c-.278-.178-.545-.367-.812-.556l1.123-1.624a29.126,29.126,0,0,0,2.958,1.8h.034l.011.022c.256.134.5.256.756.378l-2.013,4.538a31.6,31.6,0,0,0,6.684,2.313l.868-3.87c-.857-.2-1.7-.434-2.525-.7l-.311.946c-.312-.1-.623-.212-.934-.323l.667-1.868a27.232,27.232,0,0,0,3.325.978l.034-.011.022.023c.278.066.545.122.823.178l-.767,4.893a31.448,31.448,0,0,0,7.051.5l-.156-3.96c-.89.034-1.757.022-2.625-.022l-.066.99c-.323-.011-.646-.034-.979-.067l.167-1.98a27.2,27.2,0,0,0,3.458.089l.034-.022.022.022c.278-.011.556-.033.834-.044l.523,4.927a31.112,31.112,0,0,0,6.94-1.346l-1.179-3.781c-.845.256-1.691.478-2.536.656l.2.979c-.322.066-.645.122-.967.189l-.356-1.958a28.437,28.437,0,0,0,3.37-.812l.022-.022.033.011.8-.267,1.78,4.627a32.273,32.273,0,0,0,6.361-3.092l-2.124-3.359a24.425,24.425,0,0,1-2.28,1.3l.445.889c-.289.145-.589.29-.89.423l-.845-1.791A26.908,26.908,0,0,0,371.3-59.27l.022-.033.034.011.7-.467,2.925,4a31.733,31.733,0,0,0,5.339-4.627L377.4-63.073c-.6.645-1.223,1.268-1.868,1.846l.656.734c-.245.222-.49.445-.745.645l-1.279-1.513a25.225,25.225,0,0,0,2.5-2.38l.011-.033.033-.011c.19-.2.379-.4.568-.623l3.859,3.114a32.156,32.156,0,0,0,3.959-5.85l-3.514-1.846c-.412.79-.857,1.535-1.324,2.269l.823.545c-.178.278-.367.545-.556.812L378.9-66.488a27.111,27.111,0,0,0,1.8-2.958v-.033l.034-.012c.122-.255.255-.5.378-.756l4.526,2.013a31.857,31.857,0,0,0,2.314-6.684l-3.871-.867c-.2.856-.422,1.7-.7,2.524l.946.312c-.1.311-.211.622-.323.934l-1.868-.679a26.575,26.575,0,0,0,.979-3.314l-.012-.033.034-.023c.055-.278.111-.544.167-.823l4.893.768a31.458,31.458,0,0,0,.5-7.051l-3.96.155c.034.89.034,1.758-.011,2.625l.99.056c-.022.333-.044.656-.078.99l-1.968-.167a27.421,27.421,0,0,0,.077-3.459L383.729-83l.022-.023c-.011-.289-.022-.567-.044-.845l4.927-.523a31.733,31.733,0,0,0-1.335-6.94l-3.792,1.179c.267.846.478,1.691.667,2.536l.968-.2c.066.322.133.645.189.967l-1.958.356a26.477,26.477,0,0,0-.812-3.37l-.022-.022.011-.033-.267-.8L386.91-92.5a31.932,31.932,0,0,0-3.092-6.362l-3.347,2.124c.467.745.9,1.5,1.29,2.28l.889-.445c.145.289.29.59.434.879l-1.8.856a24.455,24.455,0,0,0-1.657-3.036l-.022-.022v-.034c-.156-.233-.311-.478-.467-.711l4.015-2.914a31.224,31.224,0,0,0-4.638-5.339l-2.691,2.914c.656.6,1.268,1.224,1.846,1.869l.745-.656c.211.244.434.489.645.734l-1.512,1.29a26.589,26.589,0,0,0-2.392-2.5l-.033-.011-.011-.033c-.2-.189-.412-.378-.623-.567l3.114-3.86a32.244,32.244,0,0,0-5.861-3.959l-1.835,3.515c.778.411,1.535.856,2.258,1.323l.545-.823c.278.178.545.367.812.545l-1.124,1.635a27.262,27.262,0,0,0-2.958-1.8H369.4l-.012-.033c-.255-.123-.5-.256-.756-.378l2.013-4.527a31.639,31.639,0,0,0-6.684-2.313L363.1-109c.857.189,1.7.423,2.525.69l.312-.935c.311.1.622.212.934.323l-.668,1.868a25.478,25.478,0,0,0-3.325-.978l-.033.011-.023-.034c-.266-.055-.545-.111-.823-.166l.768-4.9a32.766,32.766,0,0,0-7.04-.5l.156,3.971c.889-.033,1.757-.033,2.613.011l.067-.99c.322.022.645.045.979.078l-.167,1.969a27.191,27.191,0,0,0-3.448-.078l-.033.011-.023-.011c-.278.011-.567.022-.845.044l-.523-4.927a31.731,31.731,0,0,0-6.94,1.335l1.179,3.792q1.269-.4,2.536-.667l-.2-.967c.322-.067.645-.134.968-.19l.355,1.958a26.423,26.423,0,0,0-3.369.812l-.023.022-.033-.011c-.267.089-.534.167-.8.267l-1.779-4.627a31.678,31.678,0,0,0-6.362,3.092l2.124,3.348c.745-.467,1.5-.9,2.28-1.29l-.445-.89c.3-.156.59-.289.89-.434l.845,1.791a27,27,0,0,0-3.036,1.668l-.022.022h-.033c-.234.145-.468.3-.7.467l-2.925-4.015a31.31,31.31,0,0,0-5.339,4.638l2.914,2.68q.9-.968,1.869-1.835l-.656-.745c.244-.222.489-.434.745-.645l1.279,1.513a26.579,26.579,0,0,0-2.5,2.391l-.011.033h-.033l-.567.634-3.86-3.114a31.5,31.5,0,0,0-3.959,5.861l3.515,1.835c.411-.778.856-1.535,1.323-2.257l-.823-.545c.178-.278.367-.556.556-.823l1.624,1.134a27.26,27.26,0,0,0-1.8,2.958v.034l-.033.011c-.122.245-.256.5-.378.756l-4.527-2.013a31.64,31.64,0,0,0-2.313,6.684l3.87.868c.2-.857.423-1.7.7-2.525l-.945-.311c.1-.323.211-.623.322-.934l1.869.667a26.672,26.672,0,0,0-.979,3.325l.011.034-.022.022C330.79-87.463,330.734-87.185,330.679-86.907Z" fill="#1d2087"/><path d="M331.524-85.94c.078-.533.178-1.056.3-1.579l-.022-.022.033-.033a26.181,26.181,0,0,1,1.246-4l-3.726-1.357q-.5,1.268-.9,2.6l.946.3c-.089.333-.178.656-.267.989l-1.935-.444a30.435,30.435,0,0,1,1.69-4.883l4.549,1.98c.211-.5.445-.979.689-1.457v-.022l.034-.023a26.266,26.266,0,0,1,2.246-3.547l-3.247-2.28c-.545.734-1.057,1.49-1.546,2.28l.834.545c-.178.289-.345.578-.512.878l-1.757-.923a30.433,30.433,0,0,1,2.892-4.282l3.881,3.081c.334-.412.69-.823,1.057-1.212L338-99.386l.044-.011a26.331,26.331,0,0,1,3.081-2.836l-2.536-3.047c-.723.567-1.412,1.168-2.091,1.8l.668.746c-.245.233-.49.467-.723.711l-1.457-1.345a30.972,30.972,0,0,1,3.9-3.392l2.947,3.992c.434-.322.878-.623,1.334-.912v-.022h.045a25.268,25.268,0,0,1,3.715-1.946l-1.669-3.6c-.834.356-1.668.768-2.48,1.2l.456.89c-.3.156-.589.334-.89.5l-1.056-1.68a31.869,31.869,0,0,1,4.649-2.257l1.813,4.615c.511-.2,1.012-.378,1.523-.534l.011-.022.045.011a26.838,26.838,0,0,1,4.093-.923l-.679-3.9c-.912.134-1.813.3-2.714.523l.212.968c-.334.077-.656.166-.99.255l-.589-1.89a31.552,31.552,0,0,1,5.082-.99l.556,4.927c.534-.056,1.079-.089,1.613-.111l.011-.023.044.023a26.016,26.016,0,0,1,4.171.166l.356-3.948c-.9-.111-1.824-.178-2.736-.2l-.056.99c-.333,0-.678-.011-1.012,0l-.077-1.98a30.288,30.288,0,0,1,5.149.356l-.745,4.9c.534.089,1.067.189,1.59.3l.022-.011.034.033a26.6,26.6,0,0,1,4,1.246l1.356-3.726q-1.268-.5-2.6-.9l-.311.946c-.323-.1-.646-.189-.979-.267l.434-1.935a30.861,30.861,0,0,1,4.893,1.69l-1.98,4.538c.49.222.979.456,1.457.7l.023-.011.022.045a25.061,25.061,0,0,1,3.537,2.246l2.291-3.247c-.734-.545-1.5-1.068-2.291-1.546l-.534.834c-.289-.178-.579-.356-.879-.523l.923-1.746a30.375,30.375,0,0,1,4.282,2.892l-3.092,3.881c.423.334.834.69,1.224,1.046h.033v.044a26.438,26.438,0,0,1,2.847,3.081l3.048-2.547c-.568-.712-1.168-1.4-1.813-2.08l-.734.668c-.234-.245-.467-.49-.712-.723l1.346-1.457a31.047,31.047,0,0,1,3.392,3.9l-3.993,2.948c.323.433.623.878.912,1.334h.022v.045a25.831,25.831,0,0,1,1.947,3.714l3.6-1.668c-.367-.834-.767-1.668-1.212-2.48l-.879.456c-.167-.3-.334-.6-.5-.89l1.668-1.056a29.87,29.87,0,0,1,2.269,4.649l-4.616,1.812c.189.5.367,1.013.534,1.524l.022.011-.011.045a26.72,26.72,0,0,1,.923,4.093l3.9-.69c-.134-.9-.3-1.8-.523-2.7l-.967.212c-.078-.334-.167-.656-.256-.99l1.891-.59a30.39,30.39,0,0,1,.978,5.083l-4.927.556c.067.534.1,1.068.123,1.6l.022.022-.022.033a26.24,26.24,0,0,1-.167,4.193l3.948.356c.111-.912.178-1.824.2-2.747l-1-.056c.011-.333.011-.678.011-1.012l1.98-.089a30.637,30.637,0,0,1-.367,5.172l-4.893-.745c-.089.534-.19,1.067-.312,1.59l.022.022-.033.023a26.091,26.091,0,0,1-1.246,4l3.726,1.368q.5-1.268.9-2.6l-.945-.311c.089-.323.189-.646.267-.979l1.935.434a30.964,30.964,0,0,1-1.691,4.893L380.56-71.4c-.223.49-.456.979-.7,1.446l.011.034-.044.022a26.2,26.2,0,0,1-2.247,3.537l3.247,2.268c.545-.711,1.057-1.479,1.546-2.268l-.834-.534c.178-.289.345-.59.512-.879l1.757.923a30.822,30.822,0,0,1-2.892,4.271l-3.881-3.081c-.334.423-.69.823-1.057,1.224l.012.022-.045.011a28.394,28.394,0,0,1-3.081,2.836l2.547,3.047c.712-.567,1.4-1.167,2.08-1.812l-.667-.734c.244-.234.489-.468.723-.712L379-60.438a31.97,31.97,0,0,1-3.9,3.393l-2.947-3.993c-.434.311-.879.623-1.335.9v.033h-.045a27.567,27.567,0,0,1-3.714,1.946l1.668,3.6c.834-.367,1.668-.768,2.48-1.212l-.456-.879c.3-.167.59-.334.89-.512l1.057,1.68a30.953,30.953,0,0,1-4.649,2.269l-1.813-4.616c-.512.189-1.012.367-1.524.534l-.011.022-.044-.011a25.439,25.439,0,0,1-4.093.912l.689,3.915c.9-.134,1.8-.312,2.7-.523l-.211-.967c.333-.078.656-.167.989-.256l.59,1.89a30.273,30.273,0,0,1-5.083.979l-.556-4.927c-.534.056-1.079.1-1.6.123l-.012.022-.044-.022a26.269,26.269,0,0,1-4.182-.178l-.356,3.959c.9.1,1.824.167,2.747.189l.056-.99c.334.011.678.011,1.012.011l.078,1.98a30.433,30.433,0,0,1-5.161-.367l.746-4.9c-.534-.078-1.068-.178-1.591-.3l-.022.022-.033-.033A24.942,24.942,0,0,1,347.328-58l-1.368,3.737c.845.334,1.713.634,2.6.89l.312-.934c.322.089.645.177.979.266l-.434,1.936a30.943,30.943,0,0,1-4.894-1.691l1.98-4.549c-.489-.211-.979-.445-1.457-.7l-.022.011L345-59.07a26.144,26.144,0,0,1-3.536-2.246l-2.28,3.247c.723.545,1.49,1.057,2.28,1.546l.534-.834c.289.178.578.345.878.512l-.923,1.757a30.11,30.11,0,0,1-4.282-2.9l3.092-3.87c-.423-.345-.834-.69-1.223-1.057l-.034.011v-.044a25.58,25.58,0,0,1-2.847-3.081L333.615-63.5a26.748,26.748,0,0,0,1.813,2.08l.734-.656c.233.244.467.478.712.722l-1.346,1.457a30.3,30.3,0,0,1-3.392-3.914l3.992-2.925c-.322-.445-.622-.89-.912-1.335h-.022v-.056a25.662,25.662,0,0,1-1.946-3.7l-3.6,1.668c.367.834.768,1.657,1.213,2.469l.878-.445c.167.3.334.59.5.879l-1.668,1.068a30.465,30.465,0,0,1-2.269-4.66l4.615-1.813c-.189-.5-.367-1-.534-1.513l-.022-.011.011-.044a26.836,26.836,0,0,1-.923-4.093l-3.9.678c.134.9.3,1.813.523,2.7l.968-.2c.078.322.167.656.256.978l-1.891.6a30.371,30.371,0,0,1-.979-5.083l4.927-.556c-.056-.545-.1-1.079-.122-1.612l-.023-.012.023-.044a26.123,26.123,0,0,1,.167-4.193l-3.949-.345c-.111.9-.167,1.824-.2,2.747l1,.045c-.011.345-.011.678-.011,1.023l-1.98.078a30.433,30.433,0,0,1,.367-5.161Z" fill="#fff"/><path d="M356.981-51.143a30.361,30.361,0,0,1-4.762-.37l-.017,0,.746-4.9c-.533-.078-1.06-.177-1.567-.3l-.027.028-.042-.042a24.89,24.89,0,0,1-3.974-1.25l-1.357,3.7c.866.342,1.731.637,2.571.879l.311-.934.045.013c.307.084.625.172.949.258l.015,0,0,.016-.438,1.952-.016,0a31.014,31.014,0,0,1-4.9-1.692l-.015-.006.007-.015,1.973-4.534c-.5-.215-.981-.448-1.435-.69l-.028.013-.028-.042a26.337,26.337,0,0,1-3.521-2.235l-2.261,3.22c.66.5,1.4,1,2.252,1.526l.533-.834.014.009c.268.165.547.327.878.511l.015.008-.008.015-.931,1.772-.015-.008a30.3,30.3,0,0,1-4.284-2.9l-.013-.01.01-.013,3.082-3.858c-.391-.318-.806-.664-1.2-1.04l-.046.016v-.061a25.6,25.6,0,0,1-2.833-3.064l-3.022,2.514a26.432,26.432,0,0,0,1.791,2.055l.734-.657.011.012c.233.245.465.477.711.723l.012.011-1.369,1.481-.012-.012a30.372,30.372,0,0,1-3.394-3.917l-.01-.013.014-.01,3.979-2.915c-.285-.394-.579-.824-.9-1.314h-.029v-.068a25.659,25.659,0,0,1-1.939-3.686l-3.573,1.654c.382.866.773,1.664,1.2,2.439l.878-.445.008.014c.169.3.337.6.5.878l.008.014-1.7,1.086-.009-.015a30.608,30.608,0,0,1-2.27-4.662l-.006-.016.016-.006,4.6-1.807c-.2-.52-.369-1.008-.526-1.491l-.028-.014.013-.053a26.909,26.909,0,0,1-.92-4.074l-3.871.673c.148,1,.317,1.87.516,2.669l.968-.2,0,.016c.067.279.149.59.256.978l0,.015-.015,0-1.908.606,0-.017a30.381,30.381,0,0,1-.979-5.085l0-.016.016,0,4.911-.555c-.062-.61-.1-1.115-.121-1.587l-.028-.014.028-.056a26.235,26.235,0,0,1,.165-4.174l-3.915-.342c-.1.779-.159,1.643-.2,2.713l1,.045v.016c-.011.345-.011.674-.011,1.023v.016h-.016l-2,.078v-.017a30.437,30.437,0,0,1,.367-5.163l0-.017.017,0,4.888.731c.076-.52.173-1.029.3-1.555l-.028-.027.042-.042a26.313,26.313,0,0,1,1.239-3.985l-3.694-1.346c-.328.831-.627,1.7-.89,2.57l.945.3,0,.015c-.045.167-.089.331-.134.5s-.089.328-.133.495l0,.015-.016,0-1.952-.449.005-.017a30.545,30.545,0,0,1,1.691-4.885l.007-.015.015.007,4.533,1.973c.181-.427.392-.872.682-1.439v-.027l.037-.025a26.445,26.445,0,0,1,2.236-3.533l-3.22-2.26c-.535.72-1.034,1.457-1.527,2.251l.834.545-.009.014c-.165.269-.327.548-.511.878l-.008.014L331.928-96l-1.773-.931.009-.015a30.5,30.5,0,0,1,2.893-4.284l.01-.013.013.01,3.869,3.071c.346-.427.7-.828,1.04-1.194l-.014-.04.057-.015a26.474,26.474,0,0,1,3.066-2.823l-2.514-3.022c-.674.53-1.35,1.112-2.065,1.78l.667.745-.012.011c-.24.229-.489.467-.722.711l-.011.012-1.482-1.369.012-.012a31.038,31.038,0,0,1,3.906-3.394l.013-.01.01.014,2.937,3.979c.4-.3.829-.59,1.315-.9v-.03h.056a25.534,25.534,0,0,1,3.7-1.938l-1.654-3.573c-.766.327-1.567.715-2.449,1.186l.456.89-.015.008c-.186.1-.371.2-.55.307-.111.064-.225.13-.34.193l-.013.008-.009-.013-1.065-1.694.014-.009a32.061,32.061,0,0,1,4.652-2.259l.015-.006.006.015,1.807,4.6c.534-.209,1.026-.381,1.5-.527l.014-.027.053.013a26.963,26.963,0,0,1,4.074-.92l-.672-3.871c-.973.143-1.85.312-2.681.516l.212.968-.016,0c-.275.064-.538.134-.816.209l-.189.051-.6-1.923.016,0a31.671,31.671,0,0,1,5.085-.991l.017,0,0,.017.554,4.91c.467-.048.987-.083,1.587-.109l.014-.028.056.028a26.012,26.012,0,0,1,4.152.165l.353-3.915c-.883-.109-1.792-.175-2.7-.2l-.056.99H357.7l-.335,0c-.223,0-.454,0-.676,0h-.017v-.016l-.079-2h.017a29.927,29.927,0,0,1,5.152.356l.017,0,0,.017-.742,4.888c.541.09,1.068.19,1.569.3l.028-.014.038.038a26.588,26.588,0,0,1,3.986,1.239L368-109.53c-.832-.328-1.7-.627-2.57-.89l-.312.945-.015,0c-.337-.105-.657-.192-.978-.267l-.016,0,.441-1.968.017,0a31.208,31.208,0,0,1,4.9,1.692l.015.007-.007.015-1.973,4.522c.512.233.994.465,1.435.691l.03-.015.027.054a25.166,25.166,0,0,1,3.521,2.236l2.272-3.221c-.759-.562-1.52-1.076-2.263-1.526l-.534.834-.018-.011c-.283-.174-.575-.354-.874-.52l-.014-.008.938-1.776.015.009a30.507,30.507,0,0,1,4.285,2.893l.012.01-3.091,3.882c.383.3.789.65,1.206,1.031h.044v.054a26.486,26.486,0,0,1,2.833,3.064l3.021-2.525c-.566-.711-1.152-1.383-1.79-2.054l-.734.667-.011-.012c-.23-.24-.466-.488-.712-.722l-.012-.012.012-.012,1.357-1.469.012.012a31.041,31.041,0,0,1,3.394,3.906l.01.013-.013.01-3.98,2.937c.3.4.59.829.9,1.315h.03v.056a25.725,25.725,0,0,1,1.938,3.7l3.573-1.654c-.4-.9-.789-1.7-1.2-2.45l-.879.456-.007-.014c-.165-.295-.334-.6-.5-.889l-.008-.014,1.7-1.074.009.014a29.987,29.987,0,0,1,2.27,4.652l.006.015-.015.006-4.6,1.807c.177.47.354.975.526,1.5l.028.014-.014.053a26.909,26.909,0,0,1,.92,4.074l3.871-.684c-.144-.972-.313-1.845-.516-2.669l-.968.212,0-.016c-.064-.276-.135-.539-.209-.818l-.05-.187,1.922-.6.005.017a30.522,30.522,0,0,1,.979,5.085l0,.017-.017,0-4.91.554c.056.455.094.944.12,1.58l.027.027-.026.04a26.332,26.332,0,0,1-.166,4.173l3.915.353c.109-.9.176-1.81.2-2.713l-1-.056v-.016c.011-.334.011-.678.011-1.012v-.016h.016l2-.09v.017a30.888,30.888,0,0,1-.367,5.175l0,.016-4.894-.745c-.1.605-.2,1.1-.307,1.566l.031.03-.045.03a26.337,26.337,0,0,1-1.239,3.984l3.7,1.356c.327-.831.626-1.695.889-2.57l-.945-.312.005-.015c.027-.1.055-.2.083-.3.064-.222.129-.451.183-.682l0-.016.016,0,1.952.437,0,.017a31,31,0,0,1-1.692,4.9l-.006.015-.015-.007-4.523-1.973c-.247.543-.473,1.009-.691,1.426l.013.04-.052.026a26.342,26.342,0,0,1-2.235,3.521l3.22,2.25c.488-.639.988-1.372,1.527-2.241l-.834-.534.008-.014c.13-.211.255-.431.377-.643l.134-.235.008-.014,1.787.938-.008.015a31.032,31.032,0,0,1-2.894,4.273l-.01.013-.013-.01-3.868-3.07c-.35.441-.721.855-1.039,1.2l.015.031-.06.015a28.407,28.407,0,0,1-3.066,2.823l2.526,3.022c.709-.566,1.382-1.152,2.054-1.79l-.668-.734.012-.011c.241-.23.489-.467.723-.712l.011-.012,1.481,1.369-.012.012a32.118,32.118,0,0,1-3.9,3.394l-.014.01-.01-.013-2.937-3.98c-.412.3-.856.607-1.314.887v.041h-.057a27.794,27.794,0,0,1-3.7,1.938l1.654,3.573c.9-.4,1.7-.789,2.45-1.2l-.456-.879.014-.008c.284-.157.575-.325.889-.511l.014-.008.009.013,1.066,1.694-.015.009a30.926,30.926,0,0,1-4.651,2.27l-.016.006-.006-.015-1.807-4.6c-.572.212-1.05.379-1.5.527l-.014.028-.053-.014a25.6,25.6,0,0,1-4.074.909l.684,3.882c.856-.127,1.729-.3,2.669-.516l-.211-.968.016,0c.275-.064.537-.134.815-.209l.19-.05.6,1.922-.017.005a30.481,30.481,0,0,1-5.085.979h-.017v-.016l-.555-4.91c-.573.059-1.1.1-1.576.12l-.014.028-.056-.028a26.115,26.115,0,0,1-4.163-.176l-.353,3.926c.926.1,1.839.165,2.714.187l.055-.99h.017c.333.011.678.011,1.011.011h.016v.016l.078,2h-.017Zm-4.74-.4a30.7,30.7,0,0,0,5.124.365l-.077-1.947c-.323,0-.657,0-.98-.011l-.056.99h-.016c-.886-.022-1.811-.085-2.748-.189l-.017,0,0-.017.357-3.976.017,0a26.079,26.079,0,0,0,4.179.178h.005l.033.016.008-.016h.01c.478-.02,1.017-.062,1.6-.122l.017,0,0,.016.554,4.911a30.372,30.372,0,0,0,5.047-.972l-.58-1.859-.158.042c-.273.074-.531.143-.8.206l.212.968-.016,0c-.953.224-1.837.4-2.7.523l-.016,0,0-.016-.693-3.932.018,0a25.471,25.471,0,0,0,4.09-.911h0l.036.009.008-.017.007,0c.457-.149.941-.319,1.523-.534l.015-.005.006.015,1.807,4.6a30.9,30.9,0,0,0,4.616-2.253l-1.039-1.651c-.3.18-.586.342-.862.5l.457.878-.015.008c-.755.414-1.567.811-2.481,1.213l-.015.007-.007-.015-1.675-3.619.015-.007a27.613,27.613,0,0,0,3.713-1.945l0,0h.032v-.026l.008,0c.466-.284.916-.6,1.334-.9l.013-.009,2.947,3.992a32.214,32.214,0,0,0,3.877-3.368l-1.433-1.323c-.226.237-.467.467-.7.689l.667.734-.012.012c-.68.647-1.361,1.24-2.08,1.813l-.013.011-.011-.013-2.557-3.06.013-.011a28.456,28.456,0,0,0,3.079-2.834l0,0,.029-.007-.007-.014.008-.009c.323-.352.7-.773,1.056-1.222l.01-.013,3.882,3.081a31.069,31.069,0,0,0,2.871-4.241l-1.728-.908c-.042.074-.084.147-.126.222-.119.207-.242.422-.369.63l.834.533-.008.014c-.547.882-1.053,1.625-1.547,2.271l-.01.012-.013-.009-3.262-2.279.011-.014a26.253,26.253,0,0,0,2.245-3.534l0,0,.037-.018-.009-.026,0-.006c.221-.422.45-.894.7-1.445l.007-.015.015.006,4.523,1.973a31.073,31.073,0,0,0,1.678-4.859l-1.9-.426c-.053.226-.118.45-.18.667-.026.094-.053.187-.079.281l.946.311-.005.016c-.266.886-.569,1.762-.9,2.6l-.006.015-.016-.006-3.742-1.374.007-.016a26.415,26.415,0,0,0,1.245-4v-.007l.022-.014-.014-.015,0-.009c.11-.468.208-.973.311-1.589l0-.016.016,0,4.877.743a30.737,30.737,0,0,0,.365-5.135l-1.947.087c0,.323,0,.657-.011.981l1,.055v.016c-.022.915-.09,1.84-.2,2.749l0,.016h-.016l-3.966-.358,0-.017a26.311,26.311,0,0,0,.167-4.19v-.005l.017-.027-.017-.017v-.007c-.027-.646-.065-1.139-.122-1.6l0-.017,4.927-.556a30.391,30.391,0,0,0-.972-5.047l-1.859.58.042.156c.073.274.143.532.206.8l.968-.211,0,.015c.206.834.377,1.719.523,2.705l0,.016-.016,0-3.921.693,0-.017a26.822,26.822,0,0,0-.923-4.09v-.005l.009-.036-.017-.008,0-.007c-.174-.534-.354-1.047-.533-1.523l-.006-.015.015-.006,4.6-1.807a29.885,29.885,0,0,0-2.253-4.616l-1.64,1.039c.162.28.326.576.485.862l.878-.456.008.014c.414.755.811,1.567,1.213,2.481l.007.015-.015.007-3.619,1.676-.007-.016a25.724,25.724,0,0,0-1.945-3.712l0,0v-.033h-.015l-.005-.008c-.313-.494-.612-.93-.911-1.333l-.01-.014.013-.01,3.979-2.937a30.949,30.949,0,0,0-3.368-3.876l-1.323,1.432c.238.227.467.467.689.7l.734-.667.012.012c.647.68,1.24,1.361,1.814,2.081l.01.012-.013.011-3.06,2.558-.011-.014a26.461,26.461,0,0,0-2.845-3.079l-.006,0v-.035h-.023l-.005,0c-.423-.387-.834-.738-1.222-1.045l-.013-.01.01-.013,3.082-3.869a30.5,30.5,0,0,0-4.252-2.871l-.907,1.717c.29.162.575.337.851.506l.533-.834.014.009c.753.455,1.524.976,2.293,1.546l.013.01-.01.013-2.3,3.262-.014-.01a25.124,25.124,0,0,0-3.534-2.246l-.005,0-.017-.034-.015.007-.007,0c-.447-.228-.937-.464-1.457-.7l-.014-.007.006-.015L369.438-110a31.078,31.078,0,0,0-4.859-1.679l-.426,1.9c.311.073.622.158.948.259l.311-.945.016,0c.885.266,1.761.569,2.6.9l.015.006-1.369,3.757-.016-.007a26.559,26.559,0,0,0-4-1.244h-.005l-.028-.029-.017.009-.005,0c-.507-.108-1.042-.208-1.59-.3l-.016,0,0-.017.743-4.888a29.977,29.977,0,0,0-5.113-.353l.076,1.946c.219-.007.444,0,.661,0l.32,0,.055-.99h.016c.923.023,1.844.09,2.738.2l.016,0v.016l-.358,3.965-.017,0a26.1,26.1,0,0,0-4.168-.167h0l-.034-.016-.008.016h-.009c-.612.026-1.139.062-1.612.111l-.016,0,0-.016-.555-4.911a31.668,31.668,0,0,0-5.046.983l.579,1.859.159-.042c.272-.073.53-.143.8-.206l-.211-.967.016,0c.841-.208,1.729-.379,2.715-.523l.016,0,0,.016.681,3.921-.017,0a26.877,26.877,0,0,0-4.09.922h-.005l-.036-.009-.008.017-.007,0c-.483.147-.981.322-1.522.534l-.016.006-.006-.016-1.807-4.6a31.984,31.984,0,0,0-4.616,2.242l1.039,1.651c.11-.061.219-.124.325-.185.175-.1.355-.205.537-.3l-.456-.89.014-.007c.895-.478,1.707-.871,2.482-1.2l.015-.006.006.014,1.676,3.619-.016.007a25.34,25.34,0,0,0-3.712,1.945l0,0h-.033v.015l-.008,0c-.493.313-.929.611-1.333.912l-.014.01-.01-.014-2.937-3.979a31.092,31.092,0,0,0-3.876,3.368l1.432,1.323c.227-.237.467-.467.7-.689l-.667-.746.012-.011c.725-.677,1.409-1.266,2.092-1.8l.013-.01.01.012,2.547,3.061-.014.01a26.525,26.525,0,0,0-3.079,2.834l0,0-.032.008.009.026-.007.007c-.349.37-.7.778-1.056,1.211l-.01.013-.013-.01-3.869-3.07a30.494,30.494,0,0,0-2.871,4.251l1.728.908c.177-.319.335-.591.5-.851l-.834-.545.009-.014c.5-.806,1.005-1.552,1.546-2.281l.01-.013.013.009,3.262,2.29-.01.014a26.3,26.3,0,0,0-2.245,3.545l-.006.006-.026.018,0,.021c-.294.574-.506,1.023-.689,1.455l-.006.016-.016-.007L328.9-94.348a30.515,30.515,0,0,0-1.679,4.848l1.9.438c.043-.162.086-.321.129-.48s.086-.318.13-.479l-.946-.3,0-.015c.266-.887.569-1.763.9-2.6l.006-.015,3.757,1.368-.007.016a26.3,26.3,0,0,0-1.244,4v0l-.025.025.017.017,0,.009c-.124.533-.222,1.049-.3,1.578l0,.016-4.9-.734a30.5,30.5,0,0,0-.364,5.124l1.946-.076c0-.338,0-.657.011-.991l-1-.045v-.016c.04-1.087.1-1.96.2-2.749l0-.016.016,0,3.965.346,0,.017a26.316,26.316,0,0,0-.167,4.19v.005l-.017.033.016.008v.01c.02.478.059.99.123,1.611v.017l-.016,0-4.911.554a30.559,30.559,0,0,0,.972,5.047l1.859-.591c-.1-.374-.182-.676-.248-.948l-.967.2,0-.015c-.2-.809-.373-1.694-.523-2.7l0-.016.016,0,3.92-.682,0,.017a26.862,26.862,0,0,0,.922,4.091l0,0-.009.036.016.008,0,.007c.16.49.334.984.534,1.512l.006.015-.016.006-4.6,1.807a30.662,30.662,0,0,0,2.253,4.627l1.64-1.05c-.158-.274-.321-.557-.484-.851l-.879.445-.008-.014c-.43-.785-.827-1.593-1.213-2.47l-.006-.015.014-.007,3.62-1.676.006.016a25.75,25.75,0,0,0,1.945,3.7l0,.005v.043h.014l.005.008c.324.5.622.934.912,1.334l.01.013-.014.01L332.159-63.8a30.419,30.419,0,0,0,3.368,3.888l1.323-1.433c-.238-.238-.463-.463-.689-.7l-.734.656-.011-.012a26.138,26.138,0,0,1-1.814-2.081l-.01-.012.012-.011,3.061-2.547.01.014a25.593,25.593,0,0,0,2.846,3.079l.005.005v.028l.021-.007.007.007c.4.381.827.733,1.223,1.056l.012.01-.01.013L337.7-57.993a30.226,30.226,0,0,0,4.251,2.882l.908-1.728c-.32-.177-.591-.335-.851-.495l-.534.834-.014-.009c-.867-.537-1.613-1.043-2.281-1.546l-.013-.01.009-.013,2.29-3.262.014.011a26.379,26.379,0,0,0,3.534,2.245l.006.005.014.021.017-.008.008,0c.46.246.95.482,1.456.7l.015.007-.007.015-1.973,4.534a31.11,31.11,0,0,0,4.859,1.678l.427-1.9c-.318-.085-.631-.171-.934-.254l-.014,0-.312.934-.015,0c-.851-.245-1.727-.544-2.6-.89l-.015-.006.005-.016,1.374-3.753.016.007a24.99,24.99,0,0,0,3.99,1.256h.005l.025.025.017-.017.009,0c.513.12,1.048.221,1.589.3l.017,0,0,.017Z" fill="#fff"/><path d="M357-105.914a24.011,24.011,0,0,0-24,24.023,24,24,0,0,0,24,24,23.993,23.993,0,0,0,23.978-24A24.005,24.005,0,0,0,357-105.914Z" fill="#fff"/><path d="M357-57.1a24.819,24.819,0,0,1-24.791-24.79A24.83,24.83,0,0,1,357-106.7a24.819,24.819,0,0,1,24.768,24.813A24.807,24.807,0,0,1,357-57.1Zm0-48.023a23.248,23.248,0,0,0-23.211,23.233A23.237,23.237,0,0,0,357-58.68a23.226,23.226,0,0,0,23.188-23.211A23.237,23.237,0,0,0,357-105.124Z" fill="#1d2087"/></g><path d="M377.432-86.009q-.05-1.575-.156-3.236h-2.161l0,3.236Z" fill="none"/><path d="M344.4-81.393l-5.709-.035a10.439,10.439,0,0,0-.124,1.97H344.4Z" fill="none"/><rect width="3.192" height="1.924" transform="translate(366.769 -82.105)" fill="none"/><rect width="3.192" height="1.991" transform="translate(366.769 -76.322)" fill="none"/><path d="M375.124-82.15l0,2.025h2.254c.037-.659.065-1.332.079-2.025Z" fill="none"/><path d="M351.232-99.533h-1.212l-.656.533v.046h3.615v.022h.244l-.72-.6Z" fill="none"/><rect width="2.869" height="0.489" transform="translate(349.363 -97.976)" fill="none"/><path d="M352.7-100.9v-.578h-1.5l.011.578Z" fill="none"/><path d="M346.827-69.627h-6.806a17.274,17.274,0,0,0,6.806,5.688Z" fill="none"/><path d="M359.962-96.241h-1.824v1.813h5.606v-1.813h-1.958v-5.394h1.935v-1.813h-1.935v-1.111c-.194-.041-.39-.076-.586-.112h-1.238v1.223h-1.846v1.813h1.846Z" fill="#1d2087"/><path d="M336.518-75.666a46.6,46.6,0,0,1-.131-11.3H346.85v10.832h1.824V-90.824h-5.339v-1.847h-1.824v1.847h-4.5l.008-.045c-.441.038-.862,0-1.3.009a22.889,22.889,0,0,0-1.464,5.149,31.051,31.051,0,0,0,.3,8.9c.1.414.2.825.32,1.23C336.02-75.677,335.238-75.558,336.518-75.666Z" fill="#1d2087"/><path d="M368.6-62.132l.745-.477v-2.068h1.924v-3.848h-1.924v-1.947h2.436V-85.953h-2.214v-2.28H371.9v-3.848h-2.325v-.957h-1.824v.957h-2.491v3.848h2.491v2.28h-2.8v15.481h2.58v1.947h-3.081v3.848h3.081v3.137Q368.073-61.822,368.6-62.132Zm-1.835-19.973h3.192v1.924h-3.192Zm0,5.783h3.192v1.991h-3.192Z" fill="#1d2087"/><path d="M377.192-93.093h-3.917l.044,27.137c.624-.265,1.2-1.237,1.739-1.782l.085-.108-.011-8.431h1.86a23.755,23.755,0,0,1-1.059,4.393c.239.009.707.972.889,1.585a22.914,22.914,0,0,0,3.2-11.717A22.944,22.944,0,0,0,377.192-93.093Zm.084,3.848q.106,1.661.156,3.236h-2.313l0-3.236Zm-2.149,9.12,0-2.025h2.336c-.014.693-.042,1.366-.079,2.025Z" fill="#1d2087"/><path d="M366.591-102.965l-1.58-.549-.033,9.053H366.8v-.012l9.522-.066c-.036-.055-.07-.11-.106-.164-.192-.273-.373-.536-.546-.788a23.165,23.165,0,0,0-2.541-2.963h0l-1.879.067A7.114,7.114,0,0,1,373.386-96H366.8v-3.459h5.239q-.523-.453-1.073-.876l-.506-.374q-.144-.1-.291-.207l-3.369-.114v-1.843C366.732-102.9,366.661-102.933,366.591-102.965Z" fill="#1d2087"/><path d="M345.56-100.2v-1.034l-1-.045a5.543,5.543,0,0,0-1.535,1.123Z" fill="#1d2087"/><path d="M337.669-94.544c-.079.158-.166.312-.239.472l1.167.211.024-.033h6.46v-1.057h-5.717l1.3-1.846h4.686v-1.045h-5.083A23.144,23.144,0,0,0,337.669-94.544Z" fill="#1d2087"/><path d="M345.482-99.533H342.1a3.806,3.806,0,0,0-1,1.035h4.371Z" fill="#1d2087"/><path d="M349.736-102.858h-2.419l-.756.723-.012.656h3.24l.022.578h-3.206v1.368h1.39v.33a11.847,11.847,0,0,1-1.579,1.283l-.056,1.357,1.635-1.327v1.95h-.022v1.379h7.741V-95.94h-6.351v-.579h2.87v.022H353.6v-2.119l2.1,1.752.111-1.434a13.238,13.238,0,0,1-1.557-1.235h1.434V-100.9h-1.666l-.018-.578h1.573v-1.379h-1.617l-.062-1.988-.1.012-.7.11c-.139.023-.277.047-.414.073l0,1.793H351.17l-.027-1.446-1.193.349c-.085.027-.168.057-.253.085Zm-.373,5.372v-.49h2.87v.49Zm3.615-1.446v-.022h-3.615V-99l.656-.533H352.5l.72.6Zm-.283-2.547,0,.578h-1.491l-.011-.578Z" fill="#1d2087"/><path d="M363.543-65.022a17.005,17.005,0,0,1-4.571-6.8v-6.332h4.382V-82h-4.382v-7.318h4.382v-3.859h-12.99v3.859h4.671V-82h-4.671v3.848h4.671v4.427a16.985,16.985,0,0,1-5.249,8.841l-.087,4.707.12.041a26.346,26.346,0,0,0,6.707-7.406l.21-.307.079.118a28.546,28.546,0,0,0,6.768,7.783l.059-.017Z" fill="#1d2087"/><path d="M348.651-60.651V-73.386h-.194c-.038-.058-.08-.1-.128-.1l-6.29.033,2.253-2.146h1.935v-2.58h.011v-4.727h-.011V-85.23h-8.909l-.166,3.774c-.143,1.583-.069,2.65-.167,5.835.393-.007.587-.006.712,0v.025h.59c.123,0,.275,0,.511,0h.8l-1.961,2.169-2.009.011a23.1,23.1,0,0,0,12.36,12.595C348.208-60.765,348.428-60.694,348.651-60.651ZM338.57-79.458a10.439,10.439,0,0,1,.124-1.97l5.709.035v1.935Zm1.451,9.831h6.806v5.688A17.274,17.274,0,0,1,340.021-69.627Z" fill="#1d2087"/><path d="M398.9-64.195c.022-.036.141-.054.359-.054h3.488a2.092,2.092,0,0,1,1.641,1q.652,1.217-.728,2.228c-.174.13-.246.213-.217.25a.5.5,0,0,0,.2.108,1.752,1.752,0,0,1,1.218,1.457,1.752,1.752,0,0,1-.076.923,1.925,1.925,0,0,1-.577.848,2.4,2.4,0,0,1-1.738.554q-1.587-.021-3.174-.011c-.3.08-.434-.015-.413-.282q-.076-.3.207-.305a.63.63,0,0,0,.663-.565q-.022-2.412-.011-4.836a.651.651,0,0,0-.565-.761Q398.728-63.618,398.9-64.195Zm2.663.532q-.522-.021-.641.577-.023.88-.012,1.76a.348.348,0,0,0,.175.239,3.973,3.973,0,0,0,1.543-.1,1.2,1.2,0,0,0,.684-.75,1.082,1.082,0,0,0-.228-1.3.832.832,0,0,0-.435-.293A2.687,2.687,0,0,0,401.564-63.663ZM402.7-60.37a6.292,6.292,0,0,0-1.337-.1q-.489-.131-.457.434v1.968q.143.64.685.586a2.183,2.183,0,0,0,1.609-.4,1.087,1.087,0,0,0,.4-.869,2.344,2.344,0,0,0-.131-.978A1.224,1.224,0,0,0,402.7-60.37Z" fill="#fff"/><path d="M407.3-62.239a2.054,2.054,0,0,1,1.445.087,2.257,2.257,0,0,1,1.174,1.576,2.382,2.382,0,0,1,.076.815.723.723,0,0,1-.38.055q-1.338-.012-2.685.021c-.167.065-.228.221-.185.467a1.89,1.89,0,0,0,.2.826q.435.793.956.815a1.554,1.554,0,0,0,1.424-.641q.294-.271.478-.2c.138.081.142.229.011.446a2.066,2.066,0,0,1-2.391,1.152,2.088,2.088,0,0,1-1.5-1.249,3.629,3.629,0,0,1-.033-2.772A2.213,2.213,0,0,1,407.3-62.239Zm1.108.75q-.76-.479-1.336.391a1.2,1.2,0,0,0-.164.707c.065.087.207.119.424.1q.7.01,1.424-.022a.349.349,0,0,0,.087-.381A1.261,1.261,0,0,0,408.41-61.489Z" fill="#fff"/><path d="M412.073-62.011q.4-.172.4.163v3.87a.639.639,0,0,0,.4.434q.369.033.272.38c0,.152-.019.236-.055.25-.644.022-1.29.029-1.934.022a1.185,1.185,0,0,1-.38-.032c-.117-.356-.059-.551.173-.587a.6.6,0,0,0,.468-.717q-.012-1.11.021-2.272.108-.446-.424-.63a1.411,1.411,0,0,1-.369-.087.938.938,0,0,1-.022-.261q0-.228.359-.261A3.276,3.276,0,0,0,412.073-62.011Zm-.435-2.325a.738.738,0,0,1,.815.25q.412.522-.174,1.054a.666.666,0,0,1-.652.065.737.737,0,0,1-.456-.793A.894.894,0,0,1,411.638-64.336Z" fill="#fff"/><path d="M415.7-62.152a2.427,2.427,0,0,1,1.978.054.758.758,0,0,0,.435.174.843.843,0,0,0,.435-.228,1.025,1.025,0,0,1,.869-.141.681.681,0,0,1,.478.75.459.459,0,0,1-.543.348.613.613,0,0,1-.359-.359c-.232-.167-.406-.141-.522.076a1.179,1.179,0,0,0,.077.283,1.843,1.843,0,0,1-.088,1.739,1.523,1.523,0,0,1-.8.684,2.921,2.921,0,0,1-1.51.2.328.328,0,0,0-.381.108.176.176,0,0,0,.077.174.9.9,0,0,0,.521.174,18,18,0,0,1,2.173.543q1.24.6.577,1.555a1.393,1.393,0,0,1-.848.51,6.2,6.2,0,0,1-3.63-.043.862.862,0,0,1-.6-.945,1.367,1.367,0,0,1,.641-.794q.545-.164.185-.533c-.225-.268-.159-.546.2-.837a.232.232,0,0,0,.087-.26,1.745,1.745,0,0,1-.631-1.684A1.989,1.989,0,0,1,415.7-62.152Zm.62,4.923a1.524,1.524,0,0,0-1.174.609q-.12.358.282.554a5.408,5.408,0,0,0,1.9.087,1.331,1.331,0,0,0,.881-.391.254.254,0,0,0-.076-.326A5.56,5.56,0,0,0,416.322-57.229Zm.4-4.434q-.9-.033-1.108,1.033a3.1,3.1,0,0,0,.022.51,1.011,1.011,0,0,0,.543.805.973.973,0,0,0,1.391-.707,3.175,3.175,0,0,0-.011-.869A.9.9,0,0,0,416.723-61.663Z" fill="#fff"/><path d="M421.994-62.173a3.178,3.178,0,0,1,2.033.01,1.286,1.286,0,0,1,.837,1.142l.032,3.194c.029.283.159.367.391.25.073-.043.134,0,.185.131.13.289-.054.511-.554.663q-.586.239-1-.478a.19.19,0,0,0-.25-.109l-.815.446a1.945,1.945,0,0,1-.956.162,1.249,1.249,0,0,1-1.228-.988,1.585,1.585,0,0,1,.8-1.663,5,5,0,0,1,1.956-.707c.34-.036.478-.2.413-.5a1.726,1.726,0,0,0-.185-.76.927.927,0,0,0-.956-.381.5.5,0,0,0-.37.163,1.006,1.006,0,0,0-.239.5.709.709,0,0,1-.3.631.6.6,0,0,1-.859-.131.887.887,0,0,1,.2-1.087A2.192,2.192,0,0,1,421.994-62.173Zm1.359,2.651-.217.054a2.173,2.173,0,0,0-1.283.9q-.4,1.14.772,1.119a1.744,1.744,0,0,0,.869-.435.725.725,0,0,0,.337-.728,4.92,4.92,0,0,1,.033-.847Q423.951-59.75,423.353-59.522Z" fill="#fff"/><path d="M429.417-62.261a2.091,2.091,0,0,1,1.761.337,1.682,1.682,0,0,1,.608,1.435q-.033.978-.022,1.956a.842.842,0,0,0,.457,1.022c.188-.015.261.09.217.315,0,.159-.014.25-.043.272a1.316,1.316,0,0,1-.391.032H430.45c-.232,0-.359-.015-.381-.043a.7.7,0,0,1-.033-.261l.012-.239a1.461,1.461,0,0,1,.391-.174.5.5,0,0,0,.271-.413l-.021-2.761q-.294-.955-1.065-.869a1.84,1.84,0,0,0-1.391,1.543v2.131a.639.639,0,0,0,.4.434c.246.022.336.149.272.38,0,.152-.019.236-.055.25q-.967.033-1.934.022a1.194,1.194,0,0,1-.381-.032c-.116-.356-.058-.551.174-.587a.6.6,0,0,0,.468-.717q-.012-1.218.01-2.478a.557.557,0,0,0-.532-.424q-.414,0-.25-.522a.934.934,0,0,1,.391-.076A3.705,3.705,0,0,0,427.885-62q.348-.164.348.108c.021.167.05.265.087.293s.144-.057.3-.217A1.885,1.885,0,0,1,429.417-62.261Z" fill="#fff"/><path d="M434.916-62.152a2.428,2.428,0,0,1,1.978.054.756.756,0,0,0,.434.174.836.836,0,0,0,.435-.228,1.027,1.027,0,0,1,.87-.141.681.681,0,0,1,.478.75.459.459,0,0,1-.543.348.61.61,0,0,1-.359-.359c-.232-.167-.406-.141-.522.076a1.209,1.209,0,0,0,.076.283,1.84,1.84,0,0,1-.087,1.739,1.53,1.53,0,0,1-.8.684,2.922,2.922,0,0,1-1.51.2.328.328,0,0,0-.381.108.177.177,0,0,0,.076.174.9.9,0,0,0,.522.174,18.045,18.045,0,0,1,2.173.543q1.239.6.576,1.555a1.388,1.388,0,0,1-.847.51,6.2,6.2,0,0,1-3.63-.043.862.862,0,0,1-.6-.945,1.363,1.363,0,0,1,.641-.794q.544-.164.185-.533c-.225-.268-.159-.546.2-.837a.234.234,0,0,0,.087-.26,1.746,1.746,0,0,1-.631-1.684A1.989,1.989,0,0,1,434.916-62.152Zm.619,4.923a1.524,1.524,0,0,0-1.173.609q-.12.358.282.554a5.408,5.408,0,0,0,1.9.087,1.335,1.335,0,0,0,.881-.391.254.254,0,0,0-.077-.326A5.544,5.544,0,0,0,435.535-57.229Zm.4-4.434q-.9-.033-1.108,1.033a3.1,3.1,0,0,0,.022.51,1.011,1.011,0,0,0,.543.805.973.973,0,0,0,1.391-.707,3.174,3.174,0,0,0-.011-.869A.9.9,0,0,0,435.937-61.663Z" fill="#fff"/><path d="M447.1-64.01a2.767,2.767,0,0,1,2.489-.152.609.609,0,0,0,.576-.033c.217-.115.366-.025.446.272.093.355.2.721.315,1.1a1.048,1.048,0,0,1,.065.37.728.728,0,0,1-.206.12q-.25.151-.4-.25a2.26,2.26,0,0,0-.782-.891,1.67,1.67,0,0,0-1.782.01,1.674,1.674,0,0,0-.631.826,4.9,4.9,0,0,0-.4,1.685,4.831,4.831,0,0,0,.305,2.01,1.931,1.931,0,0,0,1.477,1.293q1.065.12,2-1.239.151-.477.609-.217c.022.022-.008.149-.087.381a2.93,2.93,0,0,1-2.185,1.945,2.486,2.486,0,0,1-1.814-.381,3.693,3.693,0,0,1-1.511-2.521,5.352,5.352,0,0,1,.261-2.673A3.14,3.14,0,0,1,447.1-64.01Z" fill="#fff"/><path d="M453.5-64.064q.392-.174.392.173-.01.957.021,1.946a.17.17,0,0,0,.24.054,2.463,2.463,0,0,1,1.793-.4q1.586.315,1.488,1.728v2.25a.639.639,0,0,0,.392.771q.435.043.228.62a1.312,1.312,0,0,1-.391.032h-1.554q-.468.108-.413-.3,0-.261.337-.37a.612.612,0,0,0,.336-.369q-.021-1.314,0-2.63a1.192,1.192,0,0,0-.63-1,1.667,1.667,0,0,0-1.728.544.734.734,0,0,0-.119.325q-.01,1.251.011,2.5a.561.561,0,0,0,.369.641q.4.087.293.391c0,.152-.021.236-.065.25q-.978.033-1.967.022a.341.341,0,0,1-.38-.348c-.029-.166.047-.257.228-.271a.66.66,0,0,0,.457-.5q.01-2.293-.022-4.6.108-.457-.511-.6c-.217.051-.3-.04-.261-.271a.861.861,0,0,1,.022-.24q.043-.064.369-.087A3.513,3.513,0,0,0,453.5-64.064Z" fill="#fff"/><path d="M460.411-62.173a3.178,3.178,0,0,1,2.033.01,1.286,1.286,0,0,1,.837,1.142l.032,3.194c.029.283.159.367.391.25.073-.043.134,0,.185.131.13.289-.054.511-.554.663q-.586.239-1-.478a.19.19,0,0,0-.25-.109l-.815.446a1.945,1.945,0,0,1-.956.162,1.249,1.249,0,0,1-1.228-.988,1.585,1.585,0,0,1,.8-1.663,5,5,0,0,1,1.956-.707c.34-.036.478-.2.413-.5a1.726,1.726,0,0,0-.185-.76.927.927,0,0,0-.956-.381.5.5,0,0,0-.37.163,1.006,1.006,0,0,0-.239.5.709.709,0,0,1-.3.631.6.6,0,0,1-.859-.131.887.887,0,0,1,.2-1.087A2.193,2.193,0,0,1,460.411-62.173Zm1.359,2.651-.217.054a2.173,2.173,0,0,0-1.283.9q-.4,1.14.772,1.119a1.744,1.744,0,0,0,.869-.435.725.725,0,0,0,.337-.728,4.923,4.923,0,0,1,.033-.847Q462.368-59.75,461.77-59.522Z" fill="#fff"/><path d="M466.421-62.228a2.353,2.353,0,0,1,2.162.391,2.221,2.221,0,0,1,.674.837,3.9,3.9,0,0,1,.272,1.891,2.879,2.879,0,0,1-.684,1.619,2.432,2.432,0,0,1-2.685.566,2.635,2.635,0,0,1-1.282-1.457,3.594,3.594,0,0,1,.054-2.489A2.409,2.409,0,0,1,466.421-62.228Zm.293.62a1.2,1.2,0,0,0-.728.7,3.963,3.963,0,0,0-.054,2.608,1.434,1.434,0,0,0,.652.783,1.3,1.3,0,0,0,1.684-.609,4.159,4.159,0,0,0,.185-2.108,2.355,2.355,0,0,0-.282-.869A1.239,1.239,0,0,0,466.714-61.608Z" fill="#fff"/><path d="M469.975-60.989c.021-.036.141-.054.358-.054h1.826a.341.341,0,0,1,.38.347v.163a1.157,1.157,0,0,1-.032.381c-.022.029-.149.043-.38.043h-1.761c-.232,0-.359-.014-.38-.043a1.266,1.266,0,0,1-.033-.391A2.328,2.328,0,0,1,469.975-60.989Z" fill="#fff"/><path d="M473.507-63.956c.014-.261.163-.358.445-.293q2.838-.01,5.673.022a.491.491,0,0,1,.131.38q.108.6.25,1.195c.043.217.05.337.021.359a.458.458,0,0,1-.543-.13,1.638,1.638,0,0,0-1.38-1.24.732.732,0,0,0-.891.6l-.011,4.923a.65.65,0,0,0,.619.674q.381-.033.2.544a1.316,1.316,0,0,1-.391.032h-2.032c-.232,0-.359-.015-.381-.043a.633.633,0,0,1-.033-.25l.011-.218a1.066,1.066,0,0,1,.391-.108.583.583,0,0,0,.457-.685q.01-2.511-.022-5.031a.856.856,0,0,0-.913-.436,1.616,1.616,0,0,0-1.271,1.109.4.4,0,0,1-.587.261c-.044-.029-.047-.152-.011-.37Z" fill="#fff"/><path d="M482.353-62.011q.4-.172.4.163v3.87a.641.641,0,0,0,.4.434q.369.033.272.38c0,.152-.019.236-.055.25q-.966.033-1.934.022a1.185,1.185,0,0,1-.38-.032c-.116-.356-.058-.551.174-.587a.6.6,0,0,0,.467-.717q-.01-1.11.021-2.272.11-.446-.423-.63a1.411,1.411,0,0,1-.37-.087.953.953,0,0,1-.021-.261q0-.228.358-.261A3.276,3.276,0,0,0,482.353-62.011Zm-.435-2.325a.738.738,0,0,1,.815.25q.414.522-.174,1.054a.664.664,0,0,1-.651.065.737.737,0,0,1-.457-.793A.9.9,0,0,1,481.918-64.336Z" fill="#fff"/><path d="M485.765-62.173a3.175,3.175,0,0,1,2.032.01,1.285,1.285,0,0,1,.837,1.142l.033,3.194c.029.283.159.367.391.25.072-.043.134,0,.184.131.131.289-.054.511-.554.663q-.586.239-1-.478a.191.191,0,0,0-.25-.109l-.816.446a1.945,1.945,0,0,1-.956.162,1.25,1.25,0,0,1-1.228-.988,1.588,1.588,0,0,1,.8-1.663,5.006,5.006,0,0,1,1.957-.707c.34-.036.478-.2.413-.5a1.74,1.74,0,0,0-.185-.76.928.928,0,0,0-.957-.381.5.5,0,0,0-.369.163,1,1,0,0,0-.239.5.71.71,0,0,1-.3.631.6.6,0,0,1-.858-.131.886.886,0,0,1,.2-1.087A2.186,2.186,0,0,1,485.765-62.173Zm1.358,2.651-.217.054a2.168,2.168,0,0,0-1.282.9q-.4,1.14.771,1.119a1.747,1.747,0,0,0,.87-.435.729.729,0,0,0,.337-.728,4.955,4.955,0,0,1,.032-.847Q487.721-59.75,487.123-59.522Z" fill="#fff"/><path d="M493.188-62.261a2.089,2.089,0,0,1,1.76.337,1.685,1.685,0,0,1,.609,1.435q-.033.978-.022,1.956a.84.84,0,0,0,.457,1.022q.282-.022.217.315c0,.159-.015.25-.044.272a1.307,1.307,0,0,1-.391.032H494.22c-.232,0-.358-.015-.38-.043a.675.675,0,0,1-.033-.261l.011-.239a1.48,1.48,0,0,1,.391-.174.508.508,0,0,0,.272-.413l-.022-2.761q-.294-.955-1.065-.869A1.84,1.84,0,0,0,492-60.109v2.131a.641.641,0,0,0,.4.434c.247.022.337.149.272.38,0,.152-.019.236-.055.25q-.966.033-1.934.022a1.185,1.185,0,0,1-.38-.032c-.116-.356-.058-.551.174-.587a.6.6,0,0,0,.467-.717q-.011-1.218.011-2.478a.559.559,0,0,0-.532-.424q-.414,0-.25-.522a.924.924,0,0,1,.391-.076A3.72,3.72,0,0,0,491.656-62q.346-.164.347.108c.022.167.051.265.087.293s.145-.057.3-.217A1.893,1.893,0,0,1,493.188-62.261Z" fill="#fff"/><path d="M502.86-63.956c.014-.261.163-.358.445-.293q2.838-.01,5.673.022a.491.491,0,0,1,.131.38q.108.6.25,1.195c.043.217.05.337.021.359a.458.458,0,0,1-.543-.13,1.638,1.638,0,0,0-1.38-1.24.732.732,0,0,0-.891.6l-.011,4.923a.651.651,0,0,0,.619.674q.381-.033.2.544a1.316,1.316,0,0,1-.391.032h-2.032c-.232,0-.359-.015-.381-.043a.633.633,0,0,1-.033-.25l.011-.218a1.066,1.066,0,0,1,.391-.108.583.583,0,0,0,.457-.685q.01-2.511-.022-5.031a.856.856,0,0,0-.913-.436,1.616,1.616,0,0,0-1.271,1.109.4.4,0,0,1-.587.261c-.044-.029-.047-.152-.011-.37Z" fill="#fff"/><path d="M511.956-62.239a2.054,2.054,0,0,1,1.445.087,2.258,2.258,0,0,1,1.174,1.576,2.356,2.356,0,0,1,.076.815.721.721,0,0,1-.38.055q-1.336-.012-2.685.021c-.166.065-.228.221-.184.467a1.888,1.888,0,0,0,.195.826q.435.793.957.815a1.554,1.554,0,0,0,1.423-.641q.294-.271.478-.2c.138.081.142.229.011.446a2.065,2.065,0,0,1-2.391,1.152,2.088,2.088,0,0,1-1.5-1.249,3.629,3.629,0,0,1-.033-2.772A2.215,2.215,0,0,1,511.956-62.239Zm1.108.75q-.761-.479-1.336.391a1.189,1.189,0,0,0-.163.707c.065.087.206.119.424.1q.695.01,1.423-.022a.348.348,0,0,0,.087-.381A1.262,1.262,0,0,0,513.064-61.489Z" fill="#fff"/><path d="M517.52-61.869a1.935,1.935,0,0,1,2.033-.294,1.362,1.362,0,0,1,.521.5.2.2,0,0,0,.239.087,2.01,2.01,0,0,1,2.4-.554,1.811,1.811,0,0,1,.739,1.565q-.033,1.239-.022,2.478a.645.645,0,0,0,.522.587c.152.007.206.115.163.326,0,.159-.015.242-.043.25a1.2,1.2,0,0,1-.381.032h-1.652a.311.311,0,0,1-.326-.348c-.029-.159.029-.242.174-.25a.606.606,0,0,0,.489-.652l.011-2.554a1.085,1.085,0,0,0-.554-.923,1.141,1.141,0,0,0-1.163.445,1.111,1.111,0,0,0-.337,1v2.065a.652.652,0,0,0,.478.6c.218.014.275.206.174.576-.022.028-.148.043-.38.043h-1.619q-.348,0-.381-.282c0-.2.062-.316.185-.337a.681.681,0,0,0,.5-.641q-.045-1.11,0-2.228a1.352,1.352,0,0,0-.229-.913q-.336-.446-.63-.37a1.181,1.181,0,0,0-.858.478,1.2,1.2,0,0,0-.348.87q-.011,1.054.011,2.108a.626.626,0,0,0,.478.707.241.241,0,0,1,.185.271c0,.181-.015.283-.044.305a1.311,1.311,0,0,1-.391.032H515.9c-.232,0-.359-.015-.38-.043a.675.675,0,0,1-.033-.261l.011-.239a1.136,1.136,0,0,1,.359-.142.63.63,0,0,0,.315-.738V-60.6a.546.546,0,0,0-.478-.554q-.457.1-.294-.5a.849.849,0,0,1,.359-.087,4.076,4.076,0,0,0,1.108-.26c.218-.1.337-.1.359,0C517.249-61.782,517.346-61.739,517.52-61.869Z" fill="#fff"/><path d="M527.355-62a2.412,2.412,0,0,1,2-.207,1.514,1.514,0,0,1,.847.565,3.045,3.045,0,0,1,.652,1.739,4.024,4.024,0,0,1-.271,1.674,2.635,2.635,0,0,1-1.532,1.347,2.415,2.415,0,0,1-1.74-.087c-.145-.152-.271-.174-.38-.065a1.509,1.509,0,0,0,.12.934.608.608,0,0,0,.456.228c.087.044.116.149.087.316q0,.239-.054.261c-.645.022-1.29.028-1.935.022a1.171,1.171,0,0,1-.38-.033c-.029-.022-.044-.1-.044-.239-.043-.218.029-.334.218-.348a.68.68,0,0,0,.456-.739q-.01-1.967.011-3.934a.5.5,0,0,0-.358-.555q-.425-.031-.435-.075a.846.846,0,0,1-.011-.283.4.4,0,0,1,.4-.271,4.259,4.259,0,0,0,1.087-.262c.232-.093.358-.1.38-.032C526.968-61.84,527.109-61.826,527.355-62Zm1.337.369a1.448,1.448,0,0,0-1.456.435.866.866,0,0,0-.327.532l-.01,2.087a1.283,1.283,0,0,0,1.358,1.152,1.4,1.4,0,0,0,1.185-.826,3.476,3.476,0,0,0,.282-1.848A1.706,1.706,0,0,0,528.692-61.63Z" fill="#fff"/><path d="M533.245-64.075c.24-.1.359-.044.359.174v5.6a.716.716,0,0,0,.576.826c.065,0,.1.134.1.4-.043.189-.188.25-.435.185h-1.565c-.3.08-.434-.015-.412-.282a.236.236,0,0,1,.206-.337.626.626,0,0,0,.478-.761l-.011-4.575a.461.461,0,0,0-.467-.348q-.338.087-.315-.294-.087-.38.391-.315A4.311,4.311,0,0,0,533.245-64.075Z" fill="#fff"/><path d="M536.994-62.239a2.056,2.056,0,0,1,1.446.087,2.258,2.258,0,0,1,1.174,1.576,2.382,2.382,0,0,1,.076.815.725.725,0,0,1-.381.055q-1.336-.012-2.684.021c-.167.065-.228.221-.185.467a1.89,1.89,0,0,0,.2.826q.435.793.956.815a1.554,1.554,0,0,0,1.424-.641q.294-.271.478-.2c.138.081.142.229.011.446a2.066,2.066,0,0,1-2.391,1.152,2.089,2.089,0,0,1-1.5-1.249,3.629,3.629,0,0,1-.033-2.772A2.214,2.214,0,0,1,536.994-62.239Zm1.109.75q-.761-.479-1.337.391a1.2,1.2,0,0,0-.163.707c.065.087.207.119.424.1q.7.01,1.424-.022a.349.349,0,0,0,.087-.381A1.271,1.271,0,0,0,538.1-61.489Z" fill="#fff"/><path d="M515.978-70.362a2.2,2.2,0,0,0-.993-.848c-1.328-.568-2.7-1.028-4.033-1.586a25.007,25.007,0,0,1-4.338-1.988c-2.288-1.535-3.85-3.818-5.426-6.04-.414-.584-.26-.847.391-1.209q1.979-1.1,3.915-2.274a1.444,1.444,0,0,0,.68-1.508,1.222,1.222,0,0,0-1.1-1.03,14.576,14.576,0,0,0-1.721-.289c-.416-.039-.872-.1-.889-.546-.01-.258.339-.58.6-.786.522-.415,1.147-.711,1.63-1.163,1.2-1.128,1.023-1.782-.535-2.589a.5.5,0,0,0-.185-.057c-1.284-.073-2.6-.68-3.824.242a1.1,1.1,0,0,1-.365.125c-1.082.294-2.177.547-3.243.89a23.9,23.9,0,0,0-3,1.154c-.719.346-.714.942-.078,1.422a7.01,7.01,0,0,0,2.9,1.494c.77.145,1.067.541.926,1.3a14.3,14.3,0,0,1-.712,2.334,1.08,1.08,0,0,1-.58.567l-.064.023a.207.207,0,0,1-.112.1,8.591,8.591,0,0,1-1.417.487,1.829,1.829,0,0,1-.765.03l-.015,0a4.54,4.54,0,0,1-.64-.117c-.05-.007-.1-.015-.15-.018l-.044,0-.2.005a.657.657,0,0,0-.159.037,2.1,2.1,0,0,1-.223.1.258.258,0,0,1-.237-.038.165.165,0,0,1-.165-.143.664.664,0,0,1-.008-.182.387.387,0,0,1-.044-.06c-.078-.126-.04-.246-.178-.338a.824.824,0,0,0-.4-.128,1.647,1.647,0,0,0-.6.506,7.5,7.5,0,0,0-.863,1.36c-.694,1.4-.076,2.47,1.47,2.682a6.037,6.037,0,0,0,3.28-.509,3.035,3.035,0,0,1,.78-.116,3.334,3.334,0,0,1-.019.807,16.459,16.459,0,0,1-.6,1.844c-1.165,2.919-2.963,5.252-6.021,6.395a.688.688,0,0,0-.33.191c-.157.232-.42.533-.365.728s.413.393.674.474a1.838,1.838,0,0,0,.655.017c3.714.3,6.48-3.144,7.512-5.625.569-1.37.926-2.827,1.41-4.233.369-1.072.657-1.107,1.393-.207,1.052,1.288,2.038,2.634,3.155,3.863,1.275,1.4,2.612,2.759,4.017,4.03A4.763,4.763,0,0,0,510.34-69.5a13.646,13.646,0,0,1,2.049.074c.924.074,1.844.225,2.769.271C515.99-69.117,516.376-69.67,515.978-70.362ZM499.7-84.6a2.839,2.839,0,0,1,.173-.284c.165-.686.323-1.375.506-2.056a.238.238,0,0,1,.052-.084.2.2,0,0,1,.14-.234,1.83,1.83,0,0,0,.457-.2l.091-.077a3.473,3.473,0,0,1,.642-.455.207.207,0,0,1,.307.176v.091a.2.2,0,0,1,.2.143c.083.315.367.526.278.884a1.242,1.242,0,0,1-.379.543l-.01.015a1.017,1.017,0,0,1-.259.425,5.827,5.827,0,0,1-.884.588c-.357.248-.669.556-1.03.8C499.8-84.2,499.614-84.433,499.7-84.6Z" fill="#fff"/><path d="M413.731-70.818a10.094,10.094,0,0,0-1.09.123,1.62,1.62,0,0,1-2.059-1.914c.042-.4.021-.814.073-1.215a1.672,1.672,0,0,1,.241-.845,5.157,5.157,0,0,0,1.1-3.242,18.338,18.338,0,0,0-.072-2.908,1.677,1.677,0,0,0-.593-.93c-.727-.641-.686-.985.148-1.423a1.161,1.161,0,0,0,.571-.805c.04-1.985.015-3.972-.009-5.958a1.817,1.817,0,0,0-.206-.672,2.535,2.535,0,0,1,.283-2.173c.21-.465,1.291-.237,1.548.384.527,1.274.977,2.58,1.431,3.882a1.965,1.965,0,0,1,0,.705,5.465,5.465,0,0,0-.062.966c.171,1.289.518,1.721,1.76,1.548a13.18,13.18,0,0,1,1.74-.129,1.092,1.092,0,0,1,1.14.791,1.121,1.121,0,0,1-.491,1.305c-.858.573-1.74,1.112-2.629,1.637a15.429,15.429,0,0,0-1.889,1.068,1.764,1.764,0,0,0-.51,1.2c-.044,1.272,0,2.548.05,3.821.028.789.251.89,1.039.792a10.239,10.239,0,0,1,4.928.14,2.6,2.6,0,0,1,1.814,1.415c.272.708.062,1.174-.69,1.351a4.1,4.1,0,0,1-1.092.108,13.828,13.828,0,0,0-4.958.795,13.51,13.51,0,0,1-1.493.318Z" fill="#fff"/><path d="M407.652-87.688a9.211,9.211,0,0,0-2.086-1.985,1.088,1.088,0,0,0-1.439.172,1.079,1.079,0,0,0-.173.966,11.793,11.793,0,0,1,.664,4.327c0,.669.017,1.339-.007,2.008-.013.392-.172.679-.656.542q-1.368-.386-2.739-.764c-.562-.154-1.121-.654-1.7-.02-.039.043-.191-.029-.247.012-.179.132-.493.317-.473.436a2.4,2.4,0,0,0,.408,1.086,11.251,11.251,0,0,0,1.371,1.373,1.466,1.466,0,0,1,.262.3,2.286,2.286,0,0,1,.39.447,1.052,1.052,0,0,1,.225.41l.013.027a1.7,1.7,0,0,0,.131.184c.234.342-.141.717-.348.96-.3.358-.594.728-.888,1.1-.15.186-.3.375-.461.55l-.028.029c-.007.009-.012.019-.019.028a1,1,0,0,1-.213.209.62.62,0,0,1-.1.056c-.038.03-.075.06-.112.092a.223.223,0,0,1-.06.036,2.624,2.624,0,0,1-.528.311.875.875,0,0,0-.484.524,17.11,17.11,0,0,0-.173,2.709,1.467,1.467,0,0,0,2.2,1.272c1.371-.763,2.7-1.614,4.014-2.467a1.7,1.7,0,0,1,1.434-.339,1.38,1.38,0,0,0,1.138-.267A1.368,1.368,0,0,0,407-74.484a8.05,8.05,0,0,1-.383-3.88c.163-.976.347-1.951.585-2.911.3-1.211.695-2.4.989-3.611A3.055,3.055,0,0,0,407.652-87.688Zm-3.768,11.934c0,.44-.467.793-1.416,1.2-.158.068-.315.137-.478.192-.559.189-.791.08-.926-.457a.189.189,0,0,1-.021-.089c-.008-.037-.016-.075-.023-.115l.032-.073a4.85,4.85,0,0,1,.375-1.374c.084-.212.171-.424.249-.639a1.737,1.737,0,0,1,.181-.373.189.189,0,0,1,.124-.148.594.594,0,0,1,.237-.138.379.379,0,0,1,.414-.07,1.976,1.976,0,0,1,.439.252,2.15,2.15,0,0,1,.237.177,1.483,1.483,0,0,1,.23.3,2.11,2.11,0,0,1,.325.789.261.261,0,0,1-.014.128A1.1,1.1,0,0,1,403.884-75.754Zm.607-2.979c-.007.021-.016.043-.026.066a.477.477,0,0,1-.014.255,3.739,3.739,0,0,1-.195.422c-.071.139-.145.277-.225.411a.733.733,0,0,1-.1.137.222.222,0,0,1-.149.066l-.012.008a.212.212,0,0,1-.209-.028.27.27,0,0,1-.084-.074,1.671,1.671,0,0,1-.159-.3l-.041-.073a2.332,2.332,0,0,1-.194-.34.218.218,0,0,1,.011-.215.539.539,0,0,1-.007-.069.324.324,0,0,1,.153-.267l.014-.008a.141.141,0,0,1,.034-.043c.048-.039.091-.082.135-.125a.2.2,0,0,1,.149-.056l.534-.461C404.3-79.106,404.534-78.877,404.491-78.733Z" fill="#fff"/><path d="M446.4-76.99a9.384,9.384,0,0,0,1.651,1.347,8.152,8.152,0,0,0,2.2.844,13.13,13.13,0,0,0,2.5.227,3.78,3.78,0,0,0,1.032-.27c-.277-.229-.519-.567-.837-.672a17.726,17.726,0,0,1-8.7-5.686c-.522-.655-.526-.788.225-1.195a8.2,8.2,0,0,0,1.4-.8,1.381,1.381,0,0,0,.387-.94c0-.139-.421-.334-.678-.426a4.576,4.576,0,0,0-1.071-.24c-1.173-.117-1.209-.161-.771-1.224.025-.06.058-.116.078-.178.208-.615.548-1.005,1.284-.867a1.1,1.1,0,0,0,.614-.143c.873-.417,1.744-.84,2.6-1.295.2-.107.335-.346.5-.524a2.558,2.558,0,0,0-.615-.468c-.585-.212-1.207-.323-1.789-.542A1.824,1.824,0,0,1,444.985-92a1.637,1.637,0,0,0-.116-.633,1.455,1.455,0,0,0-1.854-.96.806.806,0,0,0-.476,1.3,1.758,1.758,0,0,1,.38,1.5c-.119.787-.294,1.566-.459,2.345a1.892,1.892,0,0,1-1.782,1.527c-.894.13-.921.045-1.15-.837-.336-1.295-.412-2.7-1.486-3.717a1.269,1.269,0,0,0-1.52-.322,2.081,2.081,0,0,0-1.125,2.847,13.164,13.164,0,0,1,.56,1.648c.235.944.027,1.166-.928,1.32a1.825,1.825,0,0,0-.972.5,1.9,1.9,0,0,0-.427.99c-.053.375-.091.9.118,1.125a1.751,1.751,0,0,0,1.188.409,3.493,3.493,0,0,0,1.141-.418,1.421,1.421,0,0,1,2.022.687c-.065.072-.121.191-.207.221a34.516,34.516,0,0,1-3.365,1.1,2.243,2.243,0,0,0-1.9,1.559.2.2,0,0,1,.029.11,3.184,3.184,0,0,1-1.019,1.922c-.206.238-.39.49-.588.735-.015.018-.031.036-.046.055-.5.8-1.011,1.606-1.529,2.4a2.8,2.8,0,0,1-.865.747,2.274,2.274,0,0,1-.713.173,2.658,2.658,0,0,1-.086-.725c.17-1.087.323-2.181.583-3.249a4.917,4.917,0,0,0-.534-3.556,8.288,8.288,0,0,0-.673-1.252c-.394-.515-.875-.963-1.415-1.543-.118.373-.194.567-.24.768a4.829,4.829,0,0,0,.713,3.637,5.587,5.587,0,0,1-.057,5.694c-1.127,2.026-.509,3.4.732,5.236a1.348,1.348,0,0,0,1.53.6,1.338,1.338,0,0,0,.941-1.27c.049-.371.206-.507.588-.513.817-.014,1.634-.068,2.45-.13a1.858,1.858,0,0,0,1.558-1.013,6.12,6.12,0,0,1,.58-.771c.8-1.007,1.621-2,2.407-3.022a11.361,11.361,0,0,0,.7-1.156l.019,0,.005-.014a2.68,2.68,0,0,1,.348-.588.206.206,0,0,1,.348.144,8.211,8.211,0,0,1-.14.913.918.918,0,0,1,.038.42c-.106.9-.2,1.8-.394,2.68a3.839,3.839,0,0,0,1.735,4.417,5.219,5.219,0,0,0,3.225.41c2.3-.329,4.608-.672,6.906-1.047.256-.042.653-.322.663-.509a.99.99,0,0,0-.439-.8,6.445,6.445,0,0,0-5.141-.439,10.1,10.1,0,0,1-3.954.526,1.069,1.069,0,0,1-1.06-1.419,1.636,1.636,0,0,1,.688-.8c1.355-.8,2.75-1.534,4.108-2.331a4.375,4.375,0,0,0,.786-.788,4.866,4.866,0,0,0-.886-.552c-.458-.167-.552-.4-.363-.832C444.792-77.986,445.229-78.072,446.4-76.99Zm-1.676-12.118c.042-.177.089-.355.142-.557,0-.072,0-.144-.005-.215-.005-.107-.011-.213-.014-.319v-.04c0-.022,0-.027,0-.017l0-.018-.007-.034a.861.861,0,0,1-.019-.183.206.206,0,0,1,.348-.144c.076.085.148.173.221.26a.194.194,0,0,1,.1.05c.145.151.315.274.461.425a.191.191,0,0,1,.053.165.541.541,0,0,1,.058.629l-.005.006a.645.645,0,0,1-.046.081.235.235,0,0,1-.05.054,1.192,1.192,0,0,1-.609.473C444.748-88.3,444.577-88.494,444.725-89.108ZM431.52-72.977a.33.33,0,0,1-.5.032.648.648,0,0,1-.063-.588,4.12,4.12,0,0,1,.223-.647c.252-.617.452-1.26.674-1.888.141-.4.275-.795.387-1.2.053-.193.1-.388.152-.582a1.314,1.314,0,0,1,.116-.327.7.7,0,0,1,.6-.3,2.15,2.15,0,0,1,.683.1.829.829,0,0,1,.537.164,3.624,3.624,0,0,1,.748.042C433.987-76.282,433.234-74.3,431.52-72.977ZM440.2-85.545a4.064,4.064,0,0,1,.97-.312,7.788,7.788,0,0,1-.109.894.9.9,0,0,1-.267.433c-.156.141-.451.367-.523.318a2.383,2.383,0,0,1-.479-.628C439.947-85.127,440.014-85.431,440.2-85.545Zm3.062,6.513c-1.4.44-2.791.909-4.268,1.394a2.02,2.02,0,0,0,.277.294c.033.014.066.029.1.046s.071.041.109.058a.136.136,0,0,0,.063.017l.035,0,.032-.005a.865.865,0,0,0,.1-.03h.006l.005,0,.044-.021.082-.041a.689.689,0,0,1,.32-.09.36.36,0,0,1,.114-.125.246.246,0,0,1,.131-.028.206.206,0,0,1,.186.13h0l.006.013a.26.26,0,0,0,.018.032l.01.015,0,0a.619.619,0,0,0,.045.044l.021.014a.839.839,0,0,0,.1.057.612.612,0,0,0,.058.027l.026.012a2.13,2.13,0,0,1,.229.1.536.536,0,0,1,.2.176c.178.019.356.044.534.059a5.96,5.96,0,0,1-.4,1.107,6.174,6.174,0,0,1-.77.9l-.008-.006a.416.416,0,0,1-.5.22c-.258-.088-.323-.391-.41-.616a1.881,1.881,0,0,0-.147-.3,2.215,2.215,0,0,1-.2-.293c-.348-.278-.687-.556-1.014-.847-.137-.122-.125-.489-.076-.721.06-.284.282-.533.346-.816.389-1.746,1.729-2.409,3.24-2.88a.424.424,0,0,1,.353.064,14.492,14.492,0,0,1,1.325,1.309C443.892-79.4,443.693-79.168,443.26-79.032Z" fill="#fff"/><path d="M429.483-90.425c.391.205.8.39,1.171.619.658.4,1.281.867,1.954,1.244a1.285,1.285,0,0,1,.729,1.755,3.119,3.119,0,0,1-1.847,2.131,5.424,5.424,0,0,1-2.361-.2.743.743,0,0,1-.082-.589,2.355,2.355,0,0,0-.113-3.122,2.546,2.546,0,0,1-.3-.572C428.276-89.983,428.518-90.335,429.483-90.425Z" fill="#fff"/><path d="M482.77-69.55c-.1-2.108-.306-4.212-.443-6.319-.041-.622.036-1.251.01-1.875-.081-1.962-.208-3.921-.275-5.883-.049-1.4.029-2.811-.06-4.21a1.819,1.819,0,0,0-2.02-1.887,27.8,27.8,0,0,0-3.321.532c-1.981.49-2.772,1-3.254,3.1-.686,2.981-1.443,5.946-2.178,8.916a2.1,2.1,0,0,1-.175.424c0,.012,0,.024,0,.036a1.587,1.587,0,0,1-.236.676,14.089,14.089,0,0,1-.639,1.852,5.035,5.035,0,0,0-.134,4.2c.27.715.547.818,1.115.306a6.455,6.455,0,0,0,2.258-3.39c.113-.525.321-1.029.48-1.544.559-1.811,1.122-3.621,1.67-5.435.225-.743.4-1.5.633-2.241.119-.376.384-.658.832-.5.413.144.3.48.181.76a12.922,12.922,0,0,1-.834,1.748,3.479,3.479,0,0,0-.628,2.425c.113.841.359,1.252,1.209,1.208a15.14,15.14,0,0,0,2.543-.426c.388-.088.449-.4.247-.767a2.735,2.735,0,0,0-2.57-1.122,1.95,1.95,0,0,1-.467-.027c.013-.164-.031-.367.05-.485.4-.586.808-1.165,1.251-1.717.472-.588,1.049-1.1,1.466-1.722a.956.956,0,0,0-.913-1.53c-.469.025-.931.194-1.4.229a.983.983,0,0,1-.734-.193,1.957,1.957,0,0,1,.45-2.564c.937-.531,1.917-.988,2.88-1.472.448-.224.723-.028.8.413a7.393,7.393,0,0,1,.115,1.286q.027,3.4.026,6.807c0,2.439.006,4.879-.015,7.318-.007.77-.477,1.115-1.153.756a8.557,8.557,0,0,1-2.184-1.554,19.341,19.341,0,0,1-1.716-2.426,2.748,2.748,0,0,0-.252-.278l-.08.049c.023.1.046.2.059.307.011.047.023.094.035.142A22.429,22.429,0,0,0,476.86-72.7c1.18,1.8,2.505,3.512,3.773,5.257.474.651,1.619.664,1.838-.024A6.07,6.07,0,0,0,482.77-69.55Z" fill="#fff"/><path d="M468.87-78.98a4.285,4.285,0,0,0,.672-1.159,15.447,15.447,0,0,1,1.7-3.76c.2-.255.4-.792.284-.947a1.5,1.5,0,0,0-1.033-.483c-.638-.017-1.279.158-1.923.2-.279.018-.716-.006-.815-.171a.982.982,0,0,1,.045-.882,4.739,4.739,0,0,1,1.076-1.072c.5-.37,1.083-.624,1.582-.993a.658.658,0,0,0,.04-1.115,3.457,3.457,0,0,1-1.347-2.863,2.232,2.232,0,0,0-1.58-1.933c-.682-.1-1.077.281-1.5,1.409-.278.747-.6,1.48-.874,2.228A2.121,2.121,0,0,1,463.8-89.2c-.952.339-1.895.715-2.812,1.139-.736.341-.709.577-.131,1.113a6.027,6.027,0,0,0,2.711,1.135.914.914,0,0,1,.77,1.139,1.365,1.365,0,0,1-.852,1.21,12.774,12.774,0,0,1-2.335.7c-1.126.194-1.442.516-1.395,1.664a4.4,4.4,0,0,0,2.586,4.025c.622.311.647.572.109.978-.741.559-1.486,1.113-2.255,1.632a1.912,1.912,0,0,1-1.713.336.933.933,0,0,0-.8.337c-.378.553-.9,1.163-.381,1.877.505.691,1.218.4,1.842.2,1.436-.463,2.855-.981,4.284-1.464.624-.211.784-.1.826.552.023.365,0,.734.005,1.1a5.841,5.841,0,0,0,1.219,3.743.82.82,0,0,0,.635.309c.187-.04.374-.322.464-.538a14.408,14.408,0,0,0,.7-1.938c.117-.461.293-1.125.072-1.415-.676-.887-.335-1.78-.246-2.674a.922.922,0,0,1,.4-.628l.045-.024a1.839,1.839,0,0,1,.993-.608c.108-.032.217-.059.327-.082.507-.257,1.015-.509,1.523-.764a1.423,1.423,0,0,0,.249-.6c0-.019,0-.032,0-.041l-.131-.04c-.087,0-.177.01-.263.008a.592.592,0,0,1-.5-.236l-.707-.212c-.135-.041-.273-.075-.411-.111-.069-.007-.139-.013-.208-.015-.14-.005-.278.032-.418.032a.59.59,0,0,1-.4-.133c-.1-.091-.1-.222-.174-.322a.209.209,0,0,1,0-.287.528.528,0,0,1,.049-.046l-.012-.016a6.282,6.282,0,0,1,.553-.385C468.309-78.7,468.678-78.76,468.87-78.98Zm-7.18,4.523a4.133,4.133,0,0,1,2.752-1.921C464.972-75.25,463.076-74.338,461.69-74.457Zm5.531-5.726c-.7.407-1.38.833-2.072,1.246a4.828,4.828,0,0,1-.463.226c-.557.257-1.266.423-1.63-.032a2.3,2.3,0,0,1-.407-1.727,3.311,3.311,0,0,1,1.094-1.582c.611-.528,1.291-1.088,2.26-.7a.844.844,0,0,0,.762-.3c.634-1.147,1.624-1.369,3-1.209a11.179,11.179,0,0,1-.18,1.461,11.74,11.74,0,0,1-.548,1.448,1.465,1.465,0,0,1-1.39,1.066A.911.911,0,0,0,467.221-80.183Z" fill="#fff"/><path d="M464.023-79.8a1.939,1.939,0,0,1-.544-.346c-.044-.052.131-.411.281-.5.91-.525,1.842-1.014,2.768-1.512a1.893,1.893,0,0,1,.3-.122c.479-.158.993-.482,1.391.106.189.278-.347,1.142-.845,1.322-.969.35-1.955.652-2.935.971C464.338-79.847,464.229-79.839,464.023-79.8Z" fill="#fff"/><path d="M539.627-87.913a11.663,11.663,0,0,0-1.321-1.924,1.474,1.474,0,0,0-1.639-.443c-1.525.431-3.06.826-4.589,1.242-.346.094-.73.163-.622-.344a3.2,3.2,0,0,0-1.171-2.914,5.087,5.087,0,0,0-4.443-1.788,1.391,1.391,0,0,0-.265.055.173.173,0,0,1,0,.039,2.422,2.422,0,0,1-.111.434.5.5,0,0,0,0,.1l.005.025c.028.025.055.049.08.075.521.536,1.04,1.073,1.542,1.626a.629.629,0,0,1-.117,1.018,15.955,15.955,0,0,1-1.7,1.066c-.105.057-.214.108-.328.157a.116.116,0,0,1-.011.022.791.791,0,0,1-.36.265c-.062.028-.126.053-.185.085l-.034.019-.013.009a.227.227,0,0,1-.026.022h0l-.012.018-.006.02v.016h0l.014.048.008.015c.015.029.032.057.05.085l0,0a13.1,13.1,0,0,0,3.76.732.738.738,0,0,1-.384.347c-1.489.334-2.984.64-4.473.974-.582.131-1.034.1-1.2-.573-.025-.1-.189-.169-.289-.252-.092.111-.259.219-.263.333a4.786,4.786,0,0,0,.047,1.334c.318,1.268.775,1.453,1.98.883.651-.308,1.295-.629,1.948-.932a22.418,22.418,0,0,1,3.654-1.627c1.917-.5,3.912-.709,5.876-1.029a2.46,2.46,0,0,1,.627.106l-.065.078a.186.186,0,0,1,.14.285,8.058,8.058,0,0,1-1.046,1.376c-.308.324-.614.66-.944.963-.03.027-.061.052-.091.078-.1.088-.2.175-.3.257a.189.189,0,0,1-.045.071,4.147,4.147,0,0,1-.387.338.2.2,0,0,1-.2,0,.181.181,0,0,1-.045-.01,1.98,1.98,0,0,1-.311-.151,2.975,2.975,0,0,0-.524.09,3.467,3.467,0,0,0-.661.3,11.871,11.871,0,0,1-1.306.713.133.133,0,0,1-.059.009,5.2,5.2,0,0,1-1.878.686,17.429,17.429,0,0,0-1.755.422,8.323,8.323,0,0,0-.859.357,8.069,8.069,0,0,0,.785.328,6.773,6.773,0,0,0,3.163-.152.66.66,0,0,1,.482.091.427.427,0,0,1,.024.419A21.064,21.064,0,0,1,528-79.456c-1.021,1.129-1.682.948-2.228-.43a6.384,6.384,0,0,0-2.184-3.023,1.8,1.8,0,0,0-1.555-.355c.2.207.339.364.494.5a4.852,4.852,0,0,1,1.438,3.886,2.965,2.965,0,0,0,2.166,3.044c.952.282,1.425-.106,1.208-1.038-.123-.526.04-.75.579-.832a11.832,11.832,0,0,1,4.015.24.871.871,0,0,0,.66-.169c.708-.67.511-1.494-.406-1.89-.224-.1-.43-.232-.622-.338.79-.94,1.587-1.772,2.24-2.7.734-1.04.682-1.622-.6-2.033-.107-.034-.179-.169-.267-.257a1.073,1.073,0,0,1,.3-.205c1.92-.5,3.848-.973,5.763-1.488A.9.9,0,0,0,539.627-87.913Z" fill="#fff"/><path d="M525.528-74.757c.188-.052.376-.1.563-.157q2.161-.624,4.322-1.251a1,1,0,0,0,.318-.159,4.045,4.045,0,0,1,4.619-.08.843.843,0,0,1,.292,1.316,19.06,19.06,0,0,1-1.664,2.137,20.079,20.079,0,0,1-1.507,1.388,4.672,4.672,0,0,0,.744.328,1.581,1.581,0,0,1,1.1.991.961.961,0,0,1-.976,1.285c-1.141-.113-2.28-.261-3.424-.321a9.693,9.693,0,0,0-1.792.155c-.393.053-.522.295-.413.68.114.4.365.847-.059,1.2a1.412,1.412,0,0,1-1.437.067,4.592,4.592,0,0,1-2.19-1.679,1.724,1.724,0,0,1-.18-.721c-.188-1.052-.332-2.113-.563-3.156a4.321,4.321,0,0,0-1.5-2.277,1.587,1.587,0,0,1-.248-.423,1.618,1.618,0,0,1,.545-.112,3.611,3.611,0,0,1,2.071,1.227,8.474,8.474,0,0,1,1.886,2.959c.415,1.217.863,1.329,1.976.585a8.454,8.454,0,0,0,2.479-2.9,2.256,2.256,0,0,0,.147-.7,2.13,2.13,0,0,0-.78-.1,7.962,7.962,0,0,1-3.405.169,8.941,8.941,0,0,1-.941-.25Z" fill="#fff"/><path d="M521.016-86.151a6.9,6.9,0,0,0-2.524-1.884l-.083.069c0,.013.005.025.007.038s.008.061,0,.014l.005.034.012.079.005.034c.013.05.029.1.045.149.01.032.02.063.029.094.048.086.095.172.139.26.232.465.7.966.634,1.395a5.117,5.117,0,0,1-1.091,3.087,1.64,1.64,0,0,0-.219,2.114,5.093,5.093,0,0,0,1.329,1.375c.62.454,1.136.316,1.347-.4a5.526,5.526,0,0,0,.287-2.384,9.855,9.855,0,0,1,.147-3.471A.87.87,0,0,0,521.016-86.151Z" fill="#fff"/><rect width="230" height="74" transform="translate(315.88 -119.027)" fill="none"/></g></svg>